<svg xmlns="http://www.w3.org/2000/svg" viewBox="0 0 800 450"><defs><linearGradient id="h" x1="0" x2="1"><stop stop-color="#ffe66d"/><stop offset="1" stop-color="#ffb36b"/></linearGradient></defs><rect width="800" height="450" rx="36" fill="url(#h)"/><circle cx="400" cy="215" r="110" fill="#fff6ef"/><circle cx="365" cy="200" r="12" fill="#283052"/><circle cx="435" cy="200" r="12" fill="#283052"/><path d="M340 165q25-30 50 0M410 165q25-30 50 0" fill="none" stroke="#6a4635" stroke-width="12" stroke-linecap="round"/><path d="M350 250q50 50 100 0" fill="none" stroke="#ef6b7b" stroke-width="12" stroke-linecap="round"/><path d="M285 300q-55 55-95 5M515 300q55 55 95 5" fill="none" stroke="#3f5ad8" stroke-width="22" stroke-linecap="round"/><path d="M250 100l-18-35M550 100l18-35M170 200l-40-5M630 200l40-5" stroke="#fff" stroke-width="10" stroke-linecap="round"/></svg>
