<svg xmlns="http://www.w3.org/2000/svg" viewBox="0 0 800 450"><defs><linearGradient id="j" x1="0" x2="1" y1="0" y2="1"><stop stop-color="#172f78"/><stop offset="1" stop-color="#8c3ed8"/></linearGradient></defs><rect width="800" height="450" rx="36" fill="url(#j)"/><g fill="#fff" opacity=".9"><circle cx="90" cy="80" r="5"/><circle cx="180" cy="135" r="6"/><circle cx="660" cy="90" r="5"/><circle cx="720" cy="175" r="6"/></g><path d="M0 330 Q180 275 350 330 T800 320 V450H0Z" fill="#edf6ff"/><path d="M160 265h430l-50 85H210z" fill="#e43e4e"/><circle cx="255" cy="355" r="42" fill="#27304a"/><circle cx="535" cy="355" r="42" fill="#27304a"/><circle cx="255" cy="355" r="18" fill="#dbe6f1"/><circle cx="535" cy="355" r="18" fill="#dbe6f1"/><path d="M210 265l60-75h190l80 75" fill="#c93042"/><circle cx="390" cy="160" r="48" fill="#f2b27b"/><path d="M345 150q45-80 90 0" fill="#5d4037"/><path d="M365 175h50" stroke="#24304b" stroke-width="7" stroke-linecap="round"/><path d="M370 195q20 16 40 0" fill="none" stroke="#8b4652" stroke-width="6" stroke-linecap="round"/><path d="M350 115l-20-35M430 115l20-35" stroke="#f7d36a" stroke-width="13" stroke-linecap="round"/></svg>
